# xmcd
#
# Track frame offsets:
# 150
# 16823
# 29570
# 47287
# 67611
# 84347
# 96728
# 110239
# 123653
# 136448
# 157538
# 171676
#
# Disc length: 2432 seconds
#
#
# Revision: 0
# Processed by: cddbd v1.5.2PL0 Copyright (c) Steve Scherf et al.
# Submitted via: Nero 7, 11, 10, 0 
#
DISCID=9b097e0c
DTITLE=Job Striles - Out Of This World
DYEAR=2000
DGENRE=Blues
TTITLE0=I Don't Understand That Girl
TTITLE1=Bullfrog
TTITLE2=Pretty Women Was The Causin' Of It All
TTITLE3=Mean Mad Woman
TTITLE4=I Didn't Do It
TTITLE5=Back To The Stone Age
TTITLE6=Job Striles' Walking Blues
TTITLE7=Come Home Baby
TTITLE8=I Musta Got Drunk For Nuthin'
TTITLE9=My Baby Loves Me So Good
TTITLE10=Get Me On The Interstate
TTITLE11=Sitting On Top Of The World 
EXTD=
EXTT0=I Don't Understand That Girl
EXTT1=Bullfrog
EXTT2=Pretty Women Was The Causin' Of It All
EXTT3=Mean Mad Woman
EXTT4=I Didn't Do It
EXTT5=Back To The Stone Age
EXTT6=Job Striles' Walking Blues
EXTT7=Come Home Baby
EXTT8=I Musta Got Drunk For Nuthin'
EXTT9=My Baby Loves Me So Good
EXTT10=Get Me On The Interstate
EXTT11=Sitting On Top Of The World 
PLAYORDER=
